<svg width="24" height="24" viewBox="0 0 24 24" fill="none" xmlns="http://www.w3.org/2000/svg">
  <g id="Icon/24px/EndCall">
    <mask id="mask0_4548_367" style="mask-type:alpha" maskUnits="userSpaceOnUse" x="1" y="4" width="22" height="17">
      <path id="End Call" fill-rule="evenodd" clip-rule="evenodd"
        d="M21.6918 7.62725C21.4279 7.08304 20.9604 6.35511 20.1684 5.95077C15.0739 3.34974 8.92693 3.34974 3.83241 5.95077C3.04043 6.35511 2.57286 7.08304 2.30903 7.62725C2.02784 8.20726 1.85778 8.82811 1.78 9.32735L1.52638 10.9552C1.30025 12.4066 2.49448 13.5 3.76044 13.5H6.22181C7.64171 13.5 8.97406 12.5139 9.2078 11.0137L9.39805 9.79257C9.46458 9.75568 9.57941 9.70312 9.76712 9.64373C10.3123 9.47123 11.1122 9.37672 11.9873 9.39622C12.8582 9.41563 13.6749 9.54503 14.2417 9.73422C14.4124 9.79119 14.5348 9.84521 14.6177 9.88841L14.793 11.0137C15.0267 12.5139 16.3591 13.5 17.779 13.5H20.2404C21.5063 13.5 22.7005 12.4066 22.4744 10.9552L22.2208 9.32735C22.143 8.82811 21.973 8.20726 21.6918 7.62725ZM9.31796 9.84771C9.31728 9.84746 9.3215 9.84268 9.33267 9.83408C9.32423 9.84366 9.31865 9.84796 9.31796 9.84771ZM14.7477 9.96971L14.7444 9.96683C14.7467 9.96874 14.7477 9.96971 14.7477 9.96971ZM16.2751 10.7827C16.384 11.4817 17.0244 12 17.779 12H20.2404C20.7037 12 21.0592 11.6152 20.9923 11.1861L20.7387 9.55827C20.6222 8.81059 20.2149 7.65869 19.4863 7.28672C14.8202 4.90443 9.1806 4.90443 4.51449 7.28672C3.78592 7.65869 3.37861 8.81059 3.26212 9.55827L3.0085 11.1861C2.94164 11.6152 3.29712 12 3.76044 12H6.22181C6.97644 12 7.61678 11.4817 7.72568 10.7827L7.94732 9.36021C8.27845 7.23487 15.7765 7.58258 16.0535 9.36021L16.2751 10.7827ZM12.0004 12.25C12.4146 12.25 12.7504 12.5858 12.7504 13V18.0176L14.2983 16.4697C14.5912 16.1768 15.0661 16.1768 15.359 16.4697C15.6519 16.7626 15.6519 17.2374 15.359 17.5303L12.5305 20.3588L12.0002 20.8891L11.4699 20.3588L8.64146 17.5303C8.34856 17.2374 8.34856 16.7626 8.64146 16.4697C8.93435 16.1768 9.40922 16.1768 9.70212 16.4697L11.2504 18.018V13C11.2504 12.5858 11.5862 12.25 12.0004 12.25Z"
        fill="#313233" />
    </mask>
    <g mask="url(#mask0_4548_367)">
      <rect id="Color" width="24" height="24" fill="currentColor" />
    </g>
  </g>
</svg>